<svg version="1.2" baseProfile="tiny-ps" xmlns="http://www.w3.org/2000/svg" viewBox="0 0 512 512" width="512" height="512">
	<title>New Project</title>
	<defs>
		<clipPath clipPathUnits="userSpaceOnUse" id="cp1">
			<path d="M507 256.5C507 395.39 394.4 507.99 255.5 507.99C116.6 507.99 4 395.39 4 256.5C4 117.6 116.6 5 255.5 5C394.4 5 507 117.6 507 256.5Z" />
		</clipPath>
		<clipPath clipPathUnits="userSpaceOnUse" id="cp2">
			<path d="M508 256.51C508 395.41 395.4 508 256.5 508C117.6 508 5 395.41 5 256.51C5 117.6 117.6 5 256.5 5C395.4 5 508 117.6 508 256.51Z" />
		</clipPath>
	</defs>
	<style>
		tspan { white-space:pre }
		.shp0 { fill: #62c4c8 } 
		.shp1 { fill: #073761 } 
		.shp2 { fill: #e5a073 } 
		.shp3 { fill: #1d0f12 } 
		.shp4 { fill: #ffb689 } 
		.shp5 { fill: #bc1d10 } 
		.shp6 { fill: #fad59f } 
		.shp7 { fill: #1e2b2f } 
		.shp8 { fill: #392328 } 
	</style>
	<g id="&lt;Group&gt;" style="display: none">
		<path id="&lt;Path&gt;" class="shp0" d="M507 256.5C507 395.39 394.4 507.99 255.5 507.99C116.6 507.99 4 395.39 4 256.5C4 117.6 116.6 5 255.5 5C394.4 5 507 117.6 507 256.5Z" />
		<g id="&lt;Clip Group&gt;" clip-path="url(#cp1)">
			<g id="&lt;Group&gt;">
				<path id="&lt;Path&gt;" class="shp1" d="M389.26 403.53C378.73 390.39 331.76 369.4 248.36 340.56C166.71 372.46 119.74 393.45 107.45 403.53C95.16 413.61 86.71 450.5 82.12 514.2L410.99 514.2C407.04 453.56 399.8 416.67 389.26 403.53Z" />
				<path id="&lt;Path&gt;" class="shp2" d="M287.14 363.65C285.41 372.03 279.59 378.43 269.67 382.85C264.32 385.24 257.37 415.74 248.39 415.74C238.9 415.74 231.68 385.06 226.21 382.44C216.83 377.94 211.31 371.68 209.65 363.65C215.94 351.14 215.94 337.54 209.65 322.85C200.21 300.81 298.69 296.34 287.14 322.85C279.44 340.52 279.44 354.12 287.14 363.65Z" />
				<path id="&lt;Path&gt;" class="shp3" d="M336.8 275.92C341.61 254.34 346.91 227.66 352.72 195.89C382.56 129.16 351.61 28.56 293.76 59.48C222.16 -5.91 108.9 85.54 147.21 194.98C150.29 228.37 154.32 255.7 159.29 276.97C167.67 312.84 229.49 339.51 248.36 340.56C267.24 341.61 329.17 310.21 336.8 275.92Z" />
				<path id="&lt;Path&gt;" class="shp4" d="M357.88 214.99C357.88 232.47 345.48 256.5 337.13 256.5C328.77 256.5 322 242.31 322 224.83C322 207.35 330.54 198.33 337.13 193.18C345.22 186.85 357.88 193.18 357.88 214.99Z" />
				<path id="&lt;Path&gt;" class="shp4" d="M141.35 214.99C141.35 232.47 153.75 256.5 162.09 256.5C170.45 256.5 177.23 242.31 177.23 224.83C177.23 207.35 168.68 198.33 162.09 193.18C154.01 186.85 141.35 193.18 141.35 214.99Z" />
				<path id="&lt;Path&gt;" class="shp4" d="M249.96 76.39C191.23 76.39 165.26 117.55 165.26 178.92C165.26 210.2 165.26 234.64 165.26 255.79C165.26 309.25 227.03 354.98 246.55 354.98C266.06 354.98 334.66 301.51 334.66 250.87C334.66 230.85 334.66 207.8 334.66 178.92C334.66 117.55 308.7 76.39 249.96 76.39Z" />
				<path id="&lt;Path&gt;" class="shp3" d="M334.66 222.73L339.95 177.94C339.95 116.56 308.7 70.82 249.96 70.82C191.23 70.82 162.24 116.56 162.24 177.94L165.26 232.57C169.91 224.75 172.02 215.08 171.61 203.54C170.2 164.14 197.77 160.62 229.9 154.48C263.67 148.04 285.3 134.69 294.79 114.44C305.86 118.19 314.93 128.31 322 144.81C328.86 160.81 330.46 185.33 329.93 195.35C329.58 202.04 331.15 211.16 334.66 222.73Z" />
				<g id="&lt;Group&gt;">
					<path id="&lt;Compound Path&gt;" fill-rule="evenodd" class="shp5" d="M241.25 193.77C241.25 230.18 212.76 238.09 190.93 235.45C168.36 232.72 163.16 209.6 163.16 195.35C163.16 186.39 177.37 177.94 200.1 177.94C222.83 177.94 241.25 185.33 241.25 193.77ZM235.64 195.66C235.64 188.44 219.86 182.11 200.4 182.11C180.95 182.11 168.79 189.35 168.79 197.02C168.79 209.21 173.23 229.01 192.55 231.35C211.25 233.61 235.64 226.84 235.64 195.66Z" />
					<path id="&lt;Path&gt;" class="shp5" d="M255.5 203.01C254.79 199.31 251.94 197.46 246.93 197.46C243.51 197.46 241.36 199.49 240.49 203.54L237.77 187.51C240.27 189.66 242.35 190.74 244.02 190.74C245.28 190.74 248.33 191.36 250.89 190.74C252.6 190.32 254.13 189.25 255.5 187.51L255.5 203.01Z" />
					<path id="&lt;Path&gt;" class="shp5" d="M166.33 211.71C160.88 211.32 158.15 209.73 158.15 206.93C158.15 202.74 158.15 200.9 158.15 194.3C158.15 189.91 160.88 188.41 166.33 189.81L166.33 211.71Z" />
					<path id="&lt;Compound Path&gt;" fill-rule="evenodd" class="shp5" d="M292.99 177.94C315.72 177.94 329.93 186.39 329.93 195.35C329.93 209.6 324.73 232.72 302.17 235.45C280.33 238.09 251.84 230.18 251.84 193.77C251.84 185.33 270.26 177.94 292.99 177.94ZM300.54 231.35C319.86 229.01 324.3 209.21 324.3 197.02C324.3 189.35 312.15 182.11 292.69 182.11C273.23 182.11 257.46 188.44 257.46 195.66C257.46 226.84 281.85 233.61 300.54 231.35Z" />
					<path id="&lt;Path&gt;" class="shp5" d="M326.76 211.71C332.21 211.32 334.94 209.73 334.94 206.93C334.94 202.74 334.94 200.9 334.94 194.3C334.94 189.91 332.21 188.41 326.76 189.81L326.76 211.71Z" />
				</g>
			</g>
		</g>
	</g>
	<g id="&lt;Group&gt;">
		<path id="&lt;Path&gt;" class="shp6" d="M508 256.51C508 395.41 395.4 508 256.5 508C117.6 508 5 395.41 5 256.51C5 117.6 117.6 5 256.5 5C395.4 5 508 117.6 508 256.51Z" />
		<g id="&lt;Clip Group&gt;" clip-path="url(#cp2)">
			<g id="&lt;Group&gt;">
				<path id="&lt;Path&gt;" class="shp7" d="M395.8 403.53C385.27 390.4 338.3 369.41 254.89 340.57C173.25 372.47 126.28 393.46 113.99 403.53C101.7 413.62 93.25 450.51 88.64 514.21L417.53 514.21C413.58 453.56 406.34 416.67 395.8 403.53Z" />
				<path id="&lt;Path&gt;" class="shp2" d="M293.68 363.67C290.48 379.15 277.57 386.88 254.93 386.88C232.29 386.88 219.38 379.15 216.19 363.67C222.49 351.15 222.49 337.55 216.19 322.86C206.75 300.82 305.23 296.35 293.68 322.86C285.98 340.52 285.98 354.13 293.68 363.67Z" />
				<path id="&lt;Path&gt;" class="shp8" d="M335.82 276.62C337.46 254.58 345.27 227.67 359.26 195.9C389.1 129.17 358.14 28.56 300.3 59.48C228.7 -5.91 115.43 85.54 153.75 194.99C165.86 224.53 172.51 250.21 173.68 272.01C175.44 304.72 234.2 370.12 253.09 371.16C271.96 372.22 333.36 309.68 335.82 276.62Z" />
				<path id="&lt;Path&gt;" class="shp4" d="M364.42 215C364.42 232.48 352.01 256.51 343.66 256.51C335.31 256.51 328.54 242.32 328.54 224.84C328.54 207.36 337.09 198.34 343.66 193.19C351.76 186.86 364.42 193.19 364.42 215Z" />
				<path id="&lt;Path&gt;" class="shp4" d="M147.88 215C147.88 232.48 160.28 256.51 168.63 256.51C176.99 256.51 183.76 242.32 183.76 224.84C183.76 207.36 175.22 198.34 168.63 193.19C160.54 186.86 147.88 193.19 147.88 215Z" />
				<path id="&lt;Path&gt;" class="shp4" d="M256.5 76.39C197.77 76.39 171.81 117.55 171.81 178.93C171.81 210.21 171.81 234.65 171.81 255.8C171.81 309.26 233.57 354.98 253.09 354.98C272.59 354.98 341.2 301.52 341.2 250.88C341.2 230.86 341.2 207.82 341.2 178.93C341.2 117.55 315.24 76.39 256.5 76.39Z" />
				<path id="&lt;Path&gt;" class="shp8" d="M341.2 222.74L346.48 177.95C346.48 116.57 315.24 70.83 256.5 70.83C197.77 70.83 165.83 123.15 165.83 184.54L171.81 232.58C181.07 226.3 185.49 217.39 185.08 205.85C183.67 166.45 204.31 160.63 236.44 154.49C270.2 148.05 291.83 134.7 301.32 114.44C312.39 118.19 321.47 128.32 328.54 144.83C335.4 160.82 326.43 178.24 325.9 188.26C325.55 194.94 330.65 206.44 341.2 222.74Z" />
				<path id="&lt;Path&gt;" class="shp8" d="M262 322.94C256.83 323.29 247.34 324.16 244.17 322.94C250.5 332.67 250.5 344.42 244.17 358.2L262 358.2C256.82 346.44 256.82 334.69 262 322.94Z" />
			</g>
		</g>
	</g>
</svg>