<svg version="1.2" baseProfile="tiny-ps" xmlns="http://www.w3.org/2000/svg" viewBox="0 0 512 512" width="512" height="512">
	<title>New Project</title>
	<defs>
		<clipPath clipPathUnits="userSpaceOnUse" id="cp1">
			<path d="M507 256.5C507 395.39 394.4 507.99 255.5 507.99C116.6 507.99 4 395.39 4 256.5C4 117.6 116.6 5 255.5 5C394.4 5 507 117.6 507 256.5Z" />
		</clipPath>
	</defs>
	<style>
		tspan { white-space:pre }
		.shp0 { fill: #62c4c8 } 
		.shp1 { fill: #073761 } 
		.shp2 { fill: #e5a073 } 
		.shp3 { fill: #1d0f12 } 
		.shp4 { fill: #ffb689 } 
		.shp5 { fill: #bc1d10 } 
	</style>
	<g id="&lt;Group&gt;">
		<path id="&lt;Path&gt;" class="shp0" d="M507 256.5C507 395.39 394.4 507.99 255.5 507.99C116.6 507.99 4 395.39 4 256.5C4 117.6 116.6 5 255.5 5C394.4 5 507 117.6 507 256.5Z" />
		<g id="&lt;Clip Group&gt;" clip-path="url(#cp1)">
			<g id="&lt;Group&gt;">
				<path id="&lt;Path&gt;" class="shp1" d="M389.26 403.53C378.73 390.39 331.76 369.4 248.36 340.56C166.71 372.46 119.74 393.45 107.45 403.53C95.16 413.61 86.71 450.5 82.12 514.2L410.99 514.2C407.04 453.56 399.8 416.67 389.26 403.53Z" />
				<path id="&lt;Path&gt;" class="shp2" d="M287.14 363.65C285.41 372.03 279.59 378.43 269.67 382.85C264.32 385.24 257.37 415.74 248.39 415.74C238.9 415.74 231.68 385.06 226.21 382.44C216.83 377.94 211.31 371.68 209.65 363.65C215.94 351.14 215.94 337.54 209.65 322.85C200.21 300.81 298.69 296.34 287.14 322.85C279.44 340.52 279.44 354.12 287.14 363.65Z" />
				<path id="&lt;Path&gt;" class="shp3" d="M336.8 275.92C341.61 254.34 346.91 227.66 352.72 195.89C382.56 129.16 351.61 28.56 293.76 59.48C222.16 -5.91 108.9 85.54 147.21 194.98C150.29 228.37 154.32 255.7 159.29 276.97C167.67 312.84 229.49 339.51 248.36 340.56C267.24 341.61 329.17 310.21 336.8 275.92Z" />
				<path id="&lt;Path&gt;" class="shp4" d="M357.88 214.99C357.88 232.47 345.48 256.5 337.13 256.5C328.77 256.5 322 242.31 322 224.83C322 207.35 330.54 198.33 337.13 193.18C345.22 186.85 357.88 193.18 357.88 214.99Z" />
				<path id="&lt;Path&gt;" class="shp4" d="M141.35 214.99C141.35 232.47 153.75 256.5 162.09 256.5C170.45 256.5 177.23 242.31 177.23 224.83C177.23 207.35 168.68 198.33 162.09 193.18C154.01 186.85 141.35 193.18 141.35 214.99Z" />
				<path id="&lt;Path&gt;" class="shp4" d="M249.96 76.39C191.23 76.39 165.26 117.55 165.26 178.92C165.26 210.2 165.26 234.64 165.26 255.79C165.26 309.25 227.03 354.98 246.55 354.98C266.06 354.98 334.66 301.51 334.66 250.87C334.66 230.85 334.66 207.8 334.66 178.92C334.66 117.55 308.7 76.39 249.96 76.39Z" />
				<path id="&lt;Path&gt;" class="shp3" d="M334.66 222.73L339.95 177.94C339.95 116.56 308.7 70.82 249.96 70.82C191.23 70.82 162.24 116.56 162.24 177.94L165.26 232.57C169.91 224.75 172.02 215.08 171.61 203.54C170.2 164.14 197.77 160.62 229.9 154.48C263.67 148.04 285.3 134.69 294.79 114.44C305.86 118.19 314.93 128.31 322 144.81C328.86 160.81 330.46 185.33 329.93 195.35C329.58 202.04 331.15 211.16 334.66 222.73Z" />
				<g id="&lt;Group&gt;">
					<path id="&lt;Compound Path&gt;" fill-rule="evenodd" class="shp5" d="M241.25 193.77C241.25 230.18 212.76 238.09 190.93 235.45C168.36 232.72 163.16 209.6 163.16 195.35C163.16 186.39 177.37 177.94 200.1 177.94C222.83 177.94 241.25 185.33 241.25 193.77ZM235.64 195.66C235.64 188.44 219.86 182.11 200.4 182.11C180.95 182.11 168.79 189.35 168.79 197.02C168.79 209.21 173.23 229.01 192.55 231.35C211.25 233.61 235.64 226.84 235.64 195.66Z" />
					<path id="&lt;Path&gt;" class="shp5" d="M255.5 203.01C254.79 199.31 251.94 197.46 246.93 197.46C243.51 197.46 241.36 199.49 240.49 203.54L237.77 187.51C240.27 189.66 242.35 190.74 244.02 190.74C245.28 190.74 248.33 191.36 250.89 190.74C252.6 190.32 254.13 189.25 255.5 187.51L255.5 203.01Z" />
					<path id="&lt;Path&gt;" class="shp5" d="M166.33 211.71C160.88 211.32 158.15 209.73 158.15 206.93C158.15 202.74 158.15 200.9 158.15 194.3C158.15 189.91 160.88 188.41 166.33 189.81L166.33 211.71Z" />
					<path id="&lt;Compound Path&gt;" fill-rule="evenodd" class="shp5" d="M292.99 177.94C315.72 177.94 329.93 186.39 329.93 195.35C329.93 209.6 324.73 232.72 302.17 235.45C280.33 238.09 251.84 230.18 251.84 193.77C251.84 185.33 270.26 177.94 292.99 177.94ZM300.54 231.35C319.86 229.01 324.3 209.21 324.3 197.02C324.3 189.35 312.15 182.11 292.69 182.11C273.23 182.11 257.46 188.44 257.46 195.66C257.46 226.84 281.85 233.61 300.54 231.35Z" />
					<path id="&lt;Path&gt;" class="shp5" d="M326.76 211.71C332.21 211.32 334.94 209.73 334.94 206.93C334.94 202.74 334.94 200.9 334.94 194.3C334.94 189.91 332.21 188.41 326.76 189.81L326.76 211.71Z" />
				</g>
			</g>
		</g>
	</g>
</svg>