<svg width="70" height="70" viewBox="0 0 70 70" fill="none" xmlns="http://www.w3.org/2000/svg">
<g clip-path="url(#clip0)">
<path d="M66.2849 21.598H54.4143C52.3659 21.598 50.6993 23.2654 50.6993 25.3151V38.978H46.2592C46.506 38.081 46.5974 37.0229 46.5374 35.7916V35.7915C46.441 30.5881 45.4968 26.2027 43.7309 22.7571C42.3596 20.0819 40.7593 18.4781 39.3861 17.5193C40.9978 15.8621 41.9297 13.5047 41.9297 10.7857C41.9297 5.89381 38.0274 1.91406 33.2309 1.91406C28.4344 1.91406 24.532 5.89381 24.532 10.7857C24.532 11.3522 24.9911 11.8111 25.5574 11.8111H26.2541C26.19 12.198 26.1558 12.5923 26.1558 12.9928C26.1558 16.4403 28.6192 19.3216 31.8761 19.9674C31.5347 21.235 31.3651 22.7298 31.3657 24.4278L28.8083 26.6275L22.5855 27.1307L15.4074 24.7579C14.7495 24.5391 14.0038 24.2919 13.3569 24.7584C12.7194 25.2185 12.7194 26.0239 12.7194 26.2884V31.6252C12.7194 32.1917 13.1785 32.6506 13.7447 32.6506H14.9655L13.0931 39.1207C12.9358 39.6646 13.2491 40.2333 13.7931 40.3907C14.3374 40.5489 14.9058 40.2347 15.0633 39.6908L17.1006 32.6506H20.0158C16.39 43.7073 18.4588 51.0877 21.6388 58.5568H19.7955L12.1183 49.9728L13.7417 44.3646C13.8992 43.8205 13.5859 43.2519 13.0419 43.0946C12.4979 42.9372 11.9293 43.2506 11.7718 43.7944L10.219 49.1589C5.41666 49.0788 1.12096 52.3898 0.0262515 57.1535C-0.100487 57.7053 0.243908 58.2554 0.795568 58.3823L2.25121 58.7173C1.87934 62.5799 4.42299 66.2241 8.30225 67.117C8.89137 67.2528 9.48555 67.3198 10.0756 67.3198C11.5309 67.3198 12.9605 66.9118 14.225 66.1192C15.7091 65.1893 16.8149 63.8221 17.4133 62.2063L18.5619 62.4706C18.9041 62.5498 19.2287 62.5898 19.553 62.4153C19.8547 62.2528 20.0553 61.9596 20.1305 61.6286C20.2027 61.2929 20.2576 60.9518 20.2958 60.6076H41.7412C42.427 64.8714 46.0548 68.0855 50.3876 68.0855C54.7203 68.0855 58.3483 64.8714 59.0341 60.6076H59.8166C59.8166 60.6076 59.9719 60.6093 60.0074 60.6093C60.3006 60.6093 60.7242 60.5768 61.072 60.223C61.246 60.0459 61.4503 59.7291 61.4346 59.2259C61.4057 58.263 61.2612 57.3326 61.0146 56.4483C61.8313 51.4898 61.0455 48.4698 59.8805 46.1063C60.617 45.6236 61.1053 44.7918 61.1053 43.8468V41.0286H66.2847C68.3331 41.0286 69.9997 39.3612 69.9997 37.3115V25.315C70 23.2654 68.3335 21.598 66.2849 21.598ZM13.1361 64.3818C11.8234 65.2045 10.2703 65.466 8.76258 65.1189H8.76244C5.98733 64.4801 4.13588 61.9354 4.27082 59.1838L15.3933 61.7437C14.9331 62.8272 14.1545 63.7436 13.1361 64.3818ZM18.2669 60.2986L2.31656 56.6282C3.54744 53.2576 6.85986 51.0263 10.4806 51.2183L18.2942 59.9547C18.2874 60.07 18.2783 60.1845 18.2669 60.2986ZM33.755 42.4301C33.4574 43.2152 33.4574 44.183 33.4574 45.5227V49.3921H29.7027V44.0836C29.7027 38.0819 32.9782 37.0124 34.4482 36.8359H44.501C44.4605 38.198 44.1532 39.1662 43.5697 39.7808C42.8896 40.4969 41.726 40.8458 40.0121 40.8475L36.3315 40.8513C35.019 40.8514 34.1522 41.3824 33.755 42.4301ZM33.4574 51.4428V53.8911C33.4481 53.8911 33.4385 53.8911 33.4287 53.8911H26.1453C26.2272 53.1318 26.4637 52.5442 26.8521 52.1376C27.4299 51.533 28.2436 51.4428 28.6773 51.4428H33.4574ZM44.4557 34.7852H35.1306C34.7561 33.6068 34.4222 32.3165 34.1477 30.9903L36.9828 29.1501C38.5305 28.1451 39.3356 26.725 39.1918 25.2537C39.0644 23.9496 38.1777 22.7846 36.9331 22.286C35.7964 21.8307 34.5729 21.9737 33.4916 22.6651C33.5807 21.6843 33.7467 20.8087 33.9868 20.0655C34.4239 20.0204 34.8579 19.935 35.2842 19.8096C36.152 19.6081 36.9538 19.2869 37.6778 18.861C39.6527 20.0409 43.9962 23.868 44.4557 34.7852ZM26.6578 9.76049C27.1414 6.48416 29.9048 3.96498 33.2309 3.96498C36.8966 3.96498 39.8789 7.02488 39.8789 10.7859C39.8789 13.8448 38.4121 16.3103 36.0469 17.3953V11.9999C36.0469 11.0657 35.6893 9.91977 33.9866 9.76473C33.9557 9.76186 33.9247 9.76049 33.8937 9.76049H26.6578ZM28.2067 12.9929C28.2067 12.5882 28.2528 12.193 28.3434 11.8113H33.8434C33.9067 11.8181 33.9529 11.8255 33.986 11.8322C33.9913 11.8702 33.9959 11.9249 33.9959 11.9999V17.9986C33.7516 18.0346 33.5058 18.0528 33.2601 18.0529C33.2578 18.0529 33.2555 18.0529 33.2533 18.0529C30.4702 18.0503 28.2067 15.7814 28.2067 12.9929ZM26.8774 28.8414L29.3061 28.6449C29.5225 28.6275 29.7277 28.5418 29.8925 28.4003L34.2757 24.6303L34.2763 24.6296C34.7002 24.2644 35.1526 24.0771 35.5931 24.0771C35.7891 24.0771 35.9829 24.1143 36.1706 24.1895C36.7124 24.4065 37.0971 24.9025 37.151 25.4529C37.2187 26.1457 36.7623 26.8479 35.8664 27.4297L30.9821 30.6H26.8777V28.8414H26.8774ZM22.544 29.1919L24.8266 29.0073V30.6003H22.1741C21.8303 30.6003 21.7465 30.3145 21.7366 30.0748C21.731 29.9389 21.7439 29.2575 22.544 29.1919ZM20.1171 28.484C19.8082 28.9904 19.664 29.5828 19.6876 30.1588C19.6938 30.3079 19.7128 30.4516 19.7393 30.5916C19.7393 30.5945 19.7377 30.5974 19.7382 30.6001H14.7704V26.7073L20.121 28.4761C20.1194 28.4788 20.1186 28.4814 20.1171 28.484ZM22.1799 32.6509H31.2855C31.4836 32.6509 31.6776 32.5935 31.8437 32.4856L32.3079 32.1843C32.5311 33.1711 32.7854 34.1314 33.0624 35.0384C30.9712 35.6557 27.6518 37.6506 27.6518 44.0835V49.4949C26.9324 49.6401 26.0813 49.9756 25.3694 50.7206C24.6189 51.5059 24.1903 52.57 24.0875 53.891H22.019C19.9345 47.8838 19.1419 41.4914 22.1799 32.6509ZM23.87 58.5534C23.491 57.6818 23.1257 56.8135 22.7817 55.9419H33.4286C34.8085 55.9419 35.508 55.3137 35.508 54.0749V50.4174V46.5479H43.6017C44.1681 46.5479 44.627 46.089 44.627 45.5226C44.627 44.9561 44.1681 44.4972 43.6017 44.4972H35.5154C35.5285 43.9147 35.5659 43.4384 35.6727 43.1571C35.7245 43.0202 35.7693 42.9021 36.3325 42.9021L40.014 42.8982C42.3198 42.8961 43.9693 42.3382 45.0569 41.1928C45.1072 41.1398 45.1548 41.0841 45.2025 41.0288H51.7248H59.055V43.8469C59.055 44.1994 58.7579 44.4972 58.4062 44.4972H48.1981C47.6317 44.4972 47.1727 44.9561 47.1727 45.5226C47.1727 46.089 47.6317 46.5479 48.1981 46.5479H57.8037C58.6142 48.0523 59.3432 49.9241 59.2998 52.8814C57.2712 50.0635 53.9871 48.2516 50.2599 48.2516C47.2665 48.2516 44.4578 49.4257 42.3508 51.5579C40.4812 53.4496 39.3583 55.905 39.1273 58.5568L23.87 58.5534ZM50.3877 66.035C47.1822 66.035 44.4787 63.7254 43.8246 60.6078H56.9507C56.2965 63.7252 53.5931 66.035 50.3877 66.035ZM58.1156 58.5571H42.6601H41.1869C41.6903 53.9205 45.5671 50.3024 50.2599 50.3024C54.3799 50.3024 57.8398 53.0191 58.9857 56.8222C58.9893 56.8343 58.993 56.8463 58.9971 56.8582C59.1592 57.4038 59.2736 57.9718 59.3355 58.5571H58.1156ZM67.9492 37.3116C67.9492 38.2305 67.2026 38.978 66.2849 38.978H52.7501V33.6827H67.9492V37.3116ZM67.9492 31.6319H52.7501V29.4511H67.9492V31.6319ZM67.9492 27.4004H52.7501V25.3151C52.7501 24.3962 53.4967 23.6488 54.4143 23.6488H66.2849C67.2026 23.6488 67.9492 24.3964 67.9492 25.3151V27.4004Z" fill="#666666"/>
</g>
<defs>
<clipPath id="clip0">
<rect width="70" height="70" fill="white"/>
</clipPath>
</defs>
</svg>
