<svg width="84" height="84" viewBox="0 0 84 84" fill="none" xmlns="http://www.w3.org/2000/svg">
<g filter="url(#filter0_d)">
<circle cx="42" cy="41" r="40" fill="#F8F8F8"/>
</g>
<g filter="url(#filter1_d)">
<path d="M44.7989 38.8431L43.6882 44.4281H42.1518L42.2556 43.8779C41.7919 44.3 41.2209 44.5111 40.5427 44.5111C40.1067 44.5111 39.7053 44.4108 39.3385 44.2101C38.9717 44.0094 38.6776 43.7222 38.4561 43.3484C38.2415 42.9678 38.1343 42.5214 38.1343 42.0093C38.1343 41.3933 38.2692 40.8397 38.5391 40.3483C38.816 39.85 39.1897 39.4625 39.6603 39.1856C40.1309 38.9019 40.65 38.76 41.2175 38.76C42.0756 38.76 42.6812 39.0403 43.0341 39.6009L43.1795 38.8431H44.7989ZM41.041 43.172C41.3593 43.172 41.6431 43.0958 41.8922 42.9436C42.1414 42.7844 42.3352 42.5664 42.4736 42.2896C42.612 42.0127 42.6812 41.6944 42.6812 41.3345C42.6812 40.9539 42.567 40.6528 42.3386 40.4314C42.1172 40.2099 41.8057 40.0992 41.4043 40.0992C41.086 40.0992 40.8022 40.1788 40.5531 40.3379C40.3039 40.4902 40.1101 40.7047 39.9717 40.9816C39.8333 41.2584 39.7641 41.5767 39.7641 41.9366C39.7641 42.3173 39.8748 42.6183 40.0963 42.8398C40.3247 43.0612 40.6396 43.172 41.041 43.172Z" fill="#44546B"/>
<path d="M50.6064 39.8189L47.1599 43.1824H50.0251L49.7759 44.4281H44.793L44.9903 43.4523L48.4368 40.0888H45.7481L45.9972 38.8431H50.7933L50.6064 39.8189Z" fill="#44546B"/>
<path d="M56.8157 41.2203C56.8157 41.4764 56.7845 41.7601 56.7223 42.0716H52.4453C52.5006 42.8329 52.9816 43.2135 53.8882 43.2135C54.172 43.2135 54.4419 43.1685 54.6979 43.0785C54.9609 42.9886 55.1893 42.8605 55.3831 42.6944L56.0579 43.7637C55.7464 44.0128 55.39 44.1997 54.9886 44.3243C54.5872 44.4488 54.1651 44.5111 53.7221 44.5111C53.1477 44.5111 52.6425 44.4108 52.2065 44.2101C51.7774 44.0025 51.4452 43.7083 51.2099 43.3277C50.9815 42.947 50.8673 42.5076 50.8673 42.0093C50.8673 41.3933 51.0057 40.8397 51.2826 40.3483C51.5663 39.85 51.9573 39.4625 52.4556 39.1856C52.9539 38.9019 53.5214 38.76 54.1581 38.76C54.6979 38.76 55.1651 38.8604 55.5596 39.0611C55.961 39.2618 56.2689 39.549 56.4835 39.9227C56.705 40.2964 56.8157 40.729 56.8157 41.2203ZM54.0855 39.9746C53.7048 39.9746 53.383 40.0784 53.12 40.286C52.857 40.4867 52.6702 40.767 52.5594 41.1269H55.3312C55.3312 40.767 55.217 40.4867 54.9886 40.286C54.7672 40.0784 54.4661 39.9746 54.0855 39.9746Z" fill="#44546B"/>
<path d="M63.3343 41.2203C63.3343 41.4764 63.3031 41.7601 63.2409 42.0716H58.9638C59.0192 42.8329 59.5002 43.2135 60.4068 43.2135C60.6906 43.2135 60.9605 43.1685 61.2165 43.0785C61.4795 42.9886 61.7079 42.8605 61.9017 42.6944L62.5765 43.7637C62.265 44.0128 61.9086 44.1997 61.5072 44.3243C61.1058 44.4488 60.6836 44.5111 60.2407 44.5111C59.6663 44.5111 59.1611 44.4108 58.7251 44.2101C58.296 44.0025 57.9638 43.7083 57.7285 43.3277C57.5001 42.947 57.3859 42.5076 57.3859 42.0093C57.3859 41.3933 57.5243 40.8397 57.8012 40.3483C58.0849 39.85 58.4759 39.4625 58.9742 39.1856C59.4725 38.9019 60.04 38.76 60.6767 38.76C61.2165 38.76 61.6837 38.8604 62.0782 39.0611C62.4796 39.2618 62.7875 39.549 63.0021 39.9227C63.2235 40.2964 63.3343 40.729 63.3343 41.2203ZM60.6041 39.9746C60.2234 39.9746 59.9016 40.0784 59.6386 40.286C59.3756 40.4867 59.1888 40.767 59.078 41.1269H61.8498C61.8498 40.767 61.7356 40.4867 61.5072 40.286C61.2857 40.0784 60.9847 39.9746 60.6041 39.9746Z" fill="#44546B"/>
<path d="M36.6584 36.5799C37.1523 36.3329 37.3526 35.7323 37.1056 35.2383C36.8586 34.7443 36.2579 34.5441 35.7639 34.7911L36.6584 36.5799ZM20.3999 32.2654C19.8476 32.2654 19.3999 32.7131 19.3999 33.2654C19.3999 33.8177 19.8476 34.2654 20.3999 34.2654V32.2654ZM31.6937 34.2654C32.2459 34.2654 32.6937 33.8177 32.6937 33.2654C32.6937 32.7131 32.2459 32.2654 31.6937 32.2654V34.2654ZM23.1103 36.0785L22.5433 35.2548H22.5433L23.1103 36.0785ZM22.5375 45.9456L21.879 46.6981L21.879 46.6981L22.5375 45.9456ZM30.1595 38.7113L30.6067 39.6057L30.1595 38.7113ZM26.1369 45.0921C25.6292 45.3096 25.3941 45.8975 25.6116 46.4051C25.8292 46.9128 26.4171 47.1479 26.9247 46.9303L26.1369 45.0921ZM31.4422 44.9943C31.9498 44.7767 32.185 44.1888 31.9674 43.6812C31.7499 43.1736 31.162 42.9384 30.6544 43.156L31.4422 44.9943ZM30.0315 51.129L30.4028 52.0575H30.4028L30.0315 51.129ZM33.5052 41.89C33.0112 42.137 32.811 42.7376 33.058 43.2316C33.305 43.7256 33.9056 43.9258 34.3996 43.6788L33.5052 41.89ZM35.045 43.3562C35.5389 43.1092 35.7392 42.5085 35.4922 42.0145C35.2452 41.5205 34.6445 41.3203 34.1505 41.5673L35.045 43.3562ZM38.5186 48.5531C39.0314 48.348 39.2808 47.766 39.0757 47.2532C38.8706 46.7404 38.2886 46.491 37.7758 46.6961L38.5186 48.5531ZM34.7223 37.5479L36.6584 36.5799L35.7639 34.7911L33.8279 35.7591L34.7223 37.5479ZM23.9813 33.2654C23.9813 32.1247 24.9061 31.2 26.0468 31.2V29.2C23.8015 29.2 21.9813 31.0201 21.9813 33.2654H23.9813ZM26.0468 31.2C27.1875 31.2 28.1122 32.1247 28.1122 33.2654H30.1122C30.1122 31.0201 28.2921 29.2 26.0468 29.2V31.2ZM22.9813 32.2654H20.3999V34.2654H22.9813V32.2654ZM29.1122 34.2654H31.6937V32.2654H29.1122V34.2654ZM24.6337 34.7718C24.2309 34.3937 23.9813 33.8595 23.9813 33.2654H21.9813C21.9813 34.4346 22.4762 35.4898 23.265 36.2301L24.6337 34.7718ZM23.9494 36.501H25.6386V34.501H23.9494V36.501ZM23.3824 34.6773L22.5433 35.2548L23.6773 36.9023L24.5164 36.3247L23.3824 34.6773ZM21.879 46.6981L22.3228 47.0865L23.6398 45.5813L23.196 45.193L21.879 46.6981ZM23.9813 46.3559V46.3339H21.9813V46.3559H23.9813ZM23.9813 46.3339V44.1949H21.9813V46.3339H23.9813ZM30.6067 39.6057L34.0769 37.8706L33.1825 36.0818L29.7123 37.8169L30.6067 39.6057ZM26.9247 46.9303L31.4422 44.9943L30.6544 43.156L26.1369 45.0921L26.9247 46.9303ZM30.4028 52.0575L35.9372 49.8438L35.1944 47.9868L29.6601 50.2006L30.4028 52.0575ZM27.9413 40.235C28.8666 40.235 29.7791 40.0195 30.6067 39.6057L29.7123 37.8169C29.1624 38.0918 28.5561 38.235 27.9413 38.235V40.235ZM23.9813 44.1949C23.9813 42.0079 25.7543 40.235 27.9413 40.235V38.235C24.6497 38.235 21.9813 40.9033 21.9813 44.1949H23.9813ZM19.3999 41.2347C19.3999 43.3281 20.3036 45.3196 21.879 46.6981L23.196 45.193C22.0546 44.1942 21.3999 42.7514 21.3999 41.2347H19.3999ZM28.1222 50.4967C25.8353 50.4967 23.9813 48.6428 23.9813 46.3559H21.9813C21.9813 49.7474 24.7307 52.4967 28.1222 52.4967V50.4967ZM22.5433 35.2548C20.5754 36.6094 19.3999 38.8456 19.3999 41.2347H21.3999C21.3999 39.5038 22.2515 37.8837 23.6773 36.9023L22.5433 35.2548ZM28.1222 52.4967C28.9034 52.4967 29.6775 52.3477 30.4028 52.0575L29.6601 50.2006C29.1709 50.3962 28.649 50.4967 28.1222 50.4967V52.4967ZM28.1122 33.2654C28.1122 33.5963 27.9538 33.8657 27.5065 34.1055C27.0293 34.3614 26.3379 34.501 25.6386 34.501V36.501C26.5489 36.501 27.5944 36.3277 28.4515 35.8682C29.3387 35.3925 30.1122 34.5442 30.1122 33.2654H28.1122ZM34.3996 43.6788L35.045 43.3562L34.1505 41.5673L33.5052 41.89L34.3996 43.6788ZM36.9052 49.1984L38.5186 48.5531L37.7758 46.6961L36.1624 47.3415L36.9052 49.1984Z" fill="#06B5E4"/>
</g>
<defs>
<filter id="filter0_d" x="0" y="0" width="84" height="84" filterUnits="userSpaceOnUse" color-interpolation-filters="sRGB">
<feFlood flood-opacity="0" result="BackgroundImageFix"/>
<feColorMatrix in="SourceAlpha" type="matrix" values="0 0 0 0 0 0 0 0 0 0 0 0 0 0 0 0 0 0 127 0"/>
<feOffset dy="1"/>
<feGaussianBlur stdDeviation="1"/>
<feColorMatrix type="matrix" values="0 0 0 0 0 0 0 0 0 0 0 0 0 0 0 0 0 0 0.15 0"/>
<feBlend mode="normal" in2="BackgroundImageFix" result="effect1_dropShadow"/>
<feBlend mode="normal" in="SourceGraphic" in2="effect1_dropShadow" result="shape"/>
</filter>
<filter id="filter1_d" x="17.3999" y="28.2" width="47.9344" height="27.2968" filterUnits="userSpaceOnUse" color-interpolation-filters="sRGB">
<feFlood flood-opacity="0" result="BackgroundImageFix"/>
<feColorMatrix in="SourceAlpha" type="matrix" values="0 0 0 0 0 0 0 0 0 0 0 0 0 0 0 0 0 0 127 0"/>
<feOffset dy="1"/>
<feGaussianBlur stdDeviation="1"/>
<feColorMatrix type="matrix" values="0 0 0 0 0 0 0 0 0 0 0 0 0 0 0 0 0 0 0.15 0"/>
<feBlend mode="normal" in2="BackgroundImageFix" result="effect1_dropShadow"/>
<feBlend mode="normal" in="SourceGraphic" in2="effect1_dropShadow" result="shape"/>
</filter>
</defs>
</svg>
