<svg width="70" height="70" viewBox="0 0 70 70" fill="none" xmlns="http://www.w3.org/2000/svg">
<path d="M69.3726 1.48178C68.9837 1.24586 68.4989 1.23549 68.0983 1.44678L46.6667 12.7933L25.2363 1.44678C25.2194 1.43771 25.2 1.43512 25.1831 1.42734C25.1209 1.39752 25.0574 1.37549 24.9926 1.35604C24.9563 1.34567 24.9213 1.334 24.885 1.32623C24.8137 1.31197 24.7411 1.30678 24.6672 1.30419C24.6348 1.30289 24.6024 1.299 24.5687 1.3003C24.4987 1.30419 24.43 1.31715 24.3613 1.33271C24.3224 1.34049 24.2835 1.34567 24.2459 1.35734C24.2369 1.35993 24.2278 1.35993 24.22 1.36252L0.886667 9.1403C0.356481 9.3166 0 9.81178 0 10.3705V66.1112C0 66.5273 0.19963 66.9188 0.539259 67.1638C0.762222 67.3233 1.02796 67.4075 1.2963 67.4075C1.4337 67.4075 1.57241 67.3855 1.70593 67.3401L24.5804 59.7153L46.1728 68.6066C46.1909 68.6144 46.2117 68.6118 46.2298 68.6183C46.3724 68.6688 46.5176 68.7038 46.6667 68.7038C46.7833 68.7038 46.8987 68.6844 47.0115 68.6533C47.0478 68.6429 47.0815 68.626 47.1178 68.6131C47.1696 68.5936 47.2241 68.5794 47.2733 68.5535L69.3104 56.8868C69.7343 56.6625 70 56.2205 70 55.7409V2.59271C70 2.13771 69.7615 1.71641 69.3726 1.48178ZM2.59259 11.3051L23.3333 4.39197V39.3816C22.7759 39.4827 22.2263 39.5968 21.6948 39.7368C21.0026 39.9209 20.5904 40.6299 20.7744 41.3222C20.9287 41.9029 21.4524 42.2866 22.0267 42.2866C22.1356 42.2866 22.2483 42.2723 22.3598 42.2438C22.6709 42.1609 23.0106 42.1194 23.3333 42.052V57.4001L2.59259 64.312V11.3051ZM25.9259 41.689C26.342 41.6566 26.7452 41.6035 27.1717 41.5944C27.8872 41.5788 28.455 40.9864 28.4407 40.2709C28.4252 39.5644 27.8483 39.0018 27.1444 39.0018C27.1354 39.0018 27.125 39.0018 27.1159 39.0018C26.7141 39.0109 26.3187 39.0329 25.9259 39.0601V4.74586L45.3704 15.0397V42.5135C44.4448 42.4733 43.5037 42.3644 42.5172 42.1738C41.812 42.0351 41.1341 42.4966 40.998 43.1992C40.8619 43.9018 41.322 44.5823 42.0246 44.7185C43.1731 44.9414 44.288 45.0503 45.3717 45.0931V65.4722L25.9259 57.4649V41.689ZM67.4074 54.9592L47.963 65.2531V44.9531C48.4452 44.734 48.7667 44.2414 48.7239 43.6827C48.6863 43.1979 48.3752 42.809 47.963 42.6185V15.0397L67.4074 4.74586V54.9592Z" fill="#666666"/>
<path d="M14.2593 11.6667C10.6854 11.6667 7.77783 14.5743 7.77783 18.1482C7.77783 21.2788 10.0088 23.896 12.963 24.4988V27.2223C12.963 27.9392 13.5438 28.5186 14.2593 28.5186C14.9749 28.5186 15.5556 27.9392 15.5556 27.2223V24.4988C18.5099 23.896 20.7408 21.2788 20.7408 18.1482C20.7408 14.5743 17.8332 11.6667 14.2593 11.6667ZM14.2593 22.0371C12.1152 22.0371 10.3704 20.2923 10.3704 18.1482C10.3704 16.0042 12.1152 14.2593 14.2593 14.2593C16.4034 14.2593 18.1482 16.0042 18.1482 18.1482C18.1482 20.2923 16.4034 22.0371 14.2593 22.0371Z" fill="#666666"/>
<path d="M58.4242 35.8724C58.5798 35.9333 58.7392 35.9606 58.8961 35.9606C59.4146 35.9606 59.9033 35.6482 60.1042 35.1361C60.7135 33.5819 61.2022 31.8267 61.56 29.9198C61.6922 29.2172 61.2281 28.5406 60.5242 28.407C59.8164 28.2904 59.1437 28.7402 59.0114 29.4441C58.6848 31.1915 58.2401 32.7885 57.6905 34.1924C57.43 34.8574 57.7579 35.6106 58.4242 35.8724Z" fill="#666666"/>
<path d="M16.5992 41.9249C15.0346 42.9062 13.6242 44.1351 12.4057 45.5805C11.9442 46.1275 12.0142 46.9455 12.5613 47.4069C12.805 47.6118 13.1018 47.7116 13.3961 47.7116C13.7655 47.7116 14.1311 47.5547 14.3878 47.2514C15.4326 46.0121 16.6394 44.9582 17.9759 44.1221C18.5826 43.741 18.7653 42.9412 18.3855 42.3345C18.0057 41.7279 17.2046 41.5438 16.5992 41.9249Z" fill="#666666"/>
<path d="M11.1832 49.617C10.5325 49.3188 9.76249 49.6001 9.46305 50.2508C8.13305 53.1364 7.80379 55.4658 7.78953 55.5644C7.69231 56.2734 8.18749 56.9255 8.89657 57.0227C8.95619 57.0318 9.01712 57.0357 9.07545 57.0357C9.71194 57.0357 10.2668 56.5664 10.3588 55.9195C10.3614 55.8988 10.6582 53.8494 11.8171 51.3384C12.1166 50.6864 11.8327 49.9177 11.1832 49.617Z" fill="#666666"/>
<path d="M52.4002 43.723C52.5985 43.723 52.8007 43.6776 52.9887 43.5817C54.6635 42.7248 56.14 41.5089 57.3754 39.9702C57.8239 39.4115 57.7344 38.5948 57.1757 38.1476C56.6183 37.703 55.8017 37.7898 55.3532 38.3472C54.3472 39.6008 53.1546 40.5847 51.8078 41.273C51.17 41.5997 50.9172 42.38 51.2439 43.0178C51.4746 43.465 51.9296 43.723 52.4002 43.723Z" fill="#666666"/>
<path d="M37.8129 40.7454C37.2412 40.5056 36.9068 40.3397 36.8848 40.328C36.8005 40.2852 36.7111 40.2502 36.619 40.2269C35.2151 39.8665 33.832 39.5814 32.5059 39.3791C31.7994 39.2676 31.137 39.7564 31.0281 40.4641C30.9205 41.1719 31.4066 41.8343 32.1144 41.9419C33.3148 42.126 34.5683 42.3827 35.8438 42.7067C36.0175 42.7897 36.3494 42.9465 36.8135 43.1397C36.9768 43.2084 37.1466 43.2395 37.3125 43.2395C37.8194 43.2395 38.3016 42.9414 38.509 42.4436C38.7851 41.7799 38.474 41.0202 37.8129 40.7454Z" fill="#666666"/>
<path d="M60.8262 25.8365C60.8547 25.8378 60.8819 25.8391 60.9104 25.8391C61.5884 25.8391 62.1588 25.3128 62.2029 24.6244C62.2832 23.3787 62.3234 22.0604 62.3234 20.7096C62.3234 20.2598 62.3195 19.8035 62.3105 19.3381C62.2975 18.6213 61.6753 18.0769 60.9908 18.0652C60.2753 18.0781 59.7049 18.6693 59.7179 19.3848C59.7256 19.8346 59.7308 20.2767 59.7308 20.7096C59.7308 22.0059 59.6919 23.2672 59.6154 24.4598C59.5701 25.1741 60.1119 25.7898 60.8262 25.8365Z" fill="#666666"/>
<path d="M10.7503 37.213C11.003 37.4658 11.3349 37.5928 11.6667 37.5928C11.9986 37.5928 12.3304 37.4658 12.5832 37.213L14.2593 35.5369L15.9354 37.213C16.1882 37.4658 16.5201 37.5928 16.8519 37.5928C17.1838 37.5928 17.5156 37.4658 17.7684 37.213C18.2753 36.7061 18.2753 35.8869 17.7684 35.38L16.0923 33.7039L17.7684 32.0278C18.2753 31.521 18.2753 30.7017 17.7684 30.1948C17.2616 29.688 16.4423 29.688 15.9354 30.1948L14.2593 31.871L12.5832 30.1948C12.0764 29.688 11.2571 29.688 10.7503 30.1948C10.2434 30.7017 10.2434 31.521 10.7503 32.0278L12.4264 33.7039L10.7503 35.38C10.2434 35.8856 10.2434 36.7061 10.7503 37.213Z" fill="#666666"/>
</svg>
